# xmcd CD database file
#
# Track frame offsets:
#	150
#	23668
#	40867
#	55571
#	71330
#	84868
#	101234
#	121513
#	138560
#	154035
#	171864
#	186399
#
# Disc length: 2828 seconds
#
# Revision: 2
# Processed by: cddbd v1.5.2PL0 Copyright (c) Steve Scherf et al.
# Submitted via: CDex 1.51
#
DISCID=910b0a0c
DTITLE=John Huling - Canyon Light
DYEAR=2008
DGENRE=New Age
TTITLE0=Remember
TTITLE1=Canyon Light
TTITLE2=Mesa
TTITLE3=Last Saguaro
TTITLE4=Dream
TTITLE5=Above Clouds
TTITLE6=Lost
TTITLE7=Distant Lands
TTITLE8=Afternoon
TTITLE9=Last Breath
TTITLE10=Butterfly
TTITLE11=Soliloquy
EXTD=YEAR: 2008
EXTT0=
EXTT1=
EXTT2=
EXTT3=
EXTT4=
EXTT5=
EXTT6=
EXTT7=
EXTT8=
EXTT9=
EXTT10=
EXTT11=
PLAYORDER=
